<svg width="37" height="46" viewBox="0 0 37 46" fill="none" xmlns="http://www.w3.org/2000/svg">
<mask id="mask0_4_176" style="mask-type:alpha" maskUnits="userSpaceOnUse" x="0" y="0" width="38" height="46">
<path d="M29.8335 11.3264H25.8467L31.0172 3.86421L30.204 10.2292C30.1984 10.2732 30.212 10.3175 30.2413 10.3508C30.2706 10.3841 30.3128 10.4031 30.3572 10.4031H34.9557L29.14 17.3707L29.9864 11.5029C29.9928 11.4586 29.9796 11.4136 29.9502 11.3798C29.9209 11.3459 29.8783 11.3264 29.8335 11.3264ZM31.9377 8.86217L32.7825 2.02837L32.7826 2.02775C32.8107 1.7922 32.7722 1.57025 32.6647 1.36682C32.5526 1.15457 32.3703 1.0062 32.1312 0.91926C31.8962 0.833797 31.6644 0.821 31.4416 0.889713C31.2191 0.958318 31.0361 1.09789 30.893 1.2989L30.893 1.29889L30.8918 1.30071L23.9571 11.3473C23.8468 11.4996 23.7802 11.6625 23.7666 11.8349C23.7529 12.008 23.7933 12.1794 23.8794 12.3463C23.9655 12.5135 24.0821 12.646 24.2315 12.7359C24.3807 12.8258 24.5535 12.8674 24.7436 12.8674H28.2434L27.3778 18.9072L27.3778 18.9072L27.3774 18.9102C27.3482 19.1464 27.388 19.3658 27.502 19.5613L27.5023 19.5618C27.6155 19.7543 27.7794 19.8975 27.9887 19.9904C28.1996 20.0849 28.4178 20.1085 28.6383 20.058L28.6391 20.0578C28.8595 20.0061 29.0463 19.8871 29.1976 19.7075L29.198 19.707L36.9161 10.4623L36.9164 10.4618C37.0428 10.3094 37.1228 10.1431 37.1468 9.96363C37.1708 9.78418 37.1372 9.6033 37.0551 9.42432C37.055 9.42422 37.055 9.42412 37.0549 9.42402L31.9377 8.86217Z" fill="black" stroke="black" stroke-width="0.308823" stroke-linejoin="round"/>
<path d="M21.4276 10.9629H4.76747C4.03349 10.9629 3.32957 11.2545 2.81057 11.7735C2.29157 12.2925 2 12.9964 2 13.7304V35.8701C2 36.6041 2.29157 37.308 2.81057 37.827C3.32957 38.346 4.03349 38.6376 4.76747 38.6376H7.53494V44.1725M32.4422 20.0956L32.4422 35.8701C32.4422 36.6041 32.1506 37.308 31.6316 37.827C31.1126 38.346 30.4087 38.6376 29.6747 38.6376H14.4536M2 17.8816H24.4165M7.47959 38.6791L7.53494 44.1725M14.4536 38.6376L7.53494 44.1725M14.4536 38.6376V38.7185H14.1253L7.53494 44.1725" stroke="black" stroke-width="2.76747" stroke-linecap="round" stroke-linejoin="round"/>
<path d="M8.97403 32.2171L13.1252 28.0659L8.97403 23.9146M17.2764 32.2171H21.4276" stroke="black" stroke-width="2.76747" stroke-linecap="round" stroke-linejoin="round"/>
</mask>
<g mask="url(#mask0_4_176)">
<rect x="-3" y="-2" width="40" height="50" fill="white"/>
</g>
</svg>
